<?xml version="1.0" standalone="no"?>
<!DOCTYPE svg PUBLIC "-//W3C//DTD SVG 20010904//EN"
 "http://www.w3.org/TR/2001/REC-SVG-20010904/DTD/svg10.dtd">
<svg version="1.0" xmlns="http://www.w3.org/2000/svg"
 width="952.000000pt" height="952.000000pt" viewBox="0 0 952.000000 952.000000"
 preserveAspectRatio="xMidYMid meet">
<metadata>
Created by potrace 1.14, written by Peter Selinger 2001-2017
</metadata>
<g transform="translate(0.000000,952.000000) scale(0.100000,-0.100000)"
fill="#000000" stroke="none">
<path d="M5590 9512 c0 -4 -26 -13 -57 -21 -126 -28 -292 -115 -401 -208 -112
-96 -221 -258 -284 -422 l-33 -86 -3 -1584 c-2 -1576 -2 -1585 18 -1665 35
-133 132 -303 243 -423 22 -24 82 -75 132 -113 93 -70 210 -124 329 -152 31
-7 56 -16 56 -20 0 -5 707 -8 1570 -8 864 0 1570 3 1570 8 0 4 25 13 56 20
217 51 405 178 547 370 65 88 133 226 157 318 20 80 20 89 18 1665 l-3 1584
-33 86 c-63 164 -172 326 -284 422 -109 93 -275 180 -400 208 -32 8 -58 17
-58 21 0 5 -706 8 -1570 8 -863 0 -1570 -3 -1570 -8z"/>
<path d="M889 9506 c-2 -2 -22 -6 -44 -10 -278 -40 -561 -244 -704 -508 -62
-115 -90 -199 -112 -338 -15 -95 -15 -2878 0 -2986 30 -215 138 -422 299 -576
130 -124 275 -205 447 -249 l90 -24 1510 0 c1656 0 1529 -4 1695 56 348 127
607 459 645 828 9 83 9 2837 0 2921 -15 149 -78 321 -165 451 -39 58 -167 194
-230 244 -75 59 -239 137 -350 165 -25 7 -54 15 -65 18 -21 7 -3009 15 -3016
8z"/>
<path d="M859 4706 c-2 -3 -22 -6 -44 -9 -47 -5 -155 -35 -171 -49 -7 -5 -16
-8 -20 -7 -15 2 -54 -13 -54 -21 0 -4 -8 -10 -17 -12 -31 -8 -38 -12 -57 -30
-10 -9 -23 -15 -27 -12 -4 2 -12 -4 -18 -13 -6 -10 -11 -15 -11 -11 0 8 -27
-12 -62 -44 -10 -10 -21 -18 -25 -18 -14 0 -143 -144 -143 -160 0 -6 -4 -10
-8 -10 -9 0 -44 -56 -42 -66 1 -4 -3 -10 -8 -13 -8 -5 -44 -67 -47 -81 -1 -3
-9 -23 -19 -45 -9 -22 -27 -76 -39 -120 l-22 -80 0 -1530 c0 -841 3 -1550 7
-1575 14 -89 98 -310 118 -310 4 0 10 -10 14 -23 3 -12 16 -33 28 -47 13 -13
23 -28 23 -31 0 -4 11 -17 24 -28 13 -12 20 -21 16 -21 -11 0 79 -86 125 -120
18 -14 38 -29 44 -35 6 -5 25 -17 41 -25 17 -8 34 -21 38 -28 5 -7 12 -10 18
-7 5 4 9 1 9 -5 0 -6 5 -8 10 -5 6 3 10 1 10 -6 0 -7 3 -9 7 -6 3 4 13 1 22
-7 9 -8 18 -15 21 -15 3 0 16 -4 30 -9 14 -5 30 -11 35 -12 10 -3 93 -27 129
-38 38 -12 3045 -14 3116 -2 66 11 231 59 240 70 3 3 24 14 48 24 23 11 42 23
42 28 0 5 5 6 10 3 6 -3 10 -1 10 5 0 6 5 8 10 5 6 -3 10 -1 10 4 0 6 4 11 10
11 11 0 43 24 77 59 13 13 23 21 23 17 0 -4 23 15 50 42 28 27 50 52 50 56 0
4 16 23 35 43 19 20 32 40 29 44 -3 5 2 12 10 15 9 3 16 14 16 24 0 10 7 21
16 24 8 3 13 10 10 15 -3 5 1 14 9 21 8 7 12 16 9 21 -3 5 0 9 5 9 6 0 10 3 9
7 -1 5 6 26 15 47 10 22 25 69 35 105 9 36 20 67 24 69 4 2 8 691 8 1531 0
1628 1 1591 -47 1736 -9 27 -14 51 -12 51 2 1 -3 10 -11 20 -9 11 -27 43 -40
71 -14 29 -28 53 -32 53 -5 0 -8 7 -8 15 0 8 -5 15 -11 15 -5 0 -8 4 -5 9 3 4
-11 26 -32 47 -20 22 -39 44 -41 49 -5 15 -91 99 -91 90 0 -5 -11 5 -25 21
-14 16 -25 25 -25 19 0 -5 -5 -2 -11 8 -5 9 -17 17 -24 17 -8 0 -15 3 -15 8 0
4 -21 19 -47 32 -27 14 -50 28 -51 33 -2 4 -8 5 -13 1 -5 -3 -9 -1 -9 3 0 5
-17 15 -37 22 -21 8 -49 18 -63 24 -14 5 -32 11 -40 12 -8 2 -50 10 -93 19
-70 14 -245 16 -1576 16 -824 0 -1500 -2 -1502 -4z"/>
<path d="M5645 4701 c-11 -5 -26 -6 -32 -4 -7 3 -13 0 -13 -7 0 -6 -4 -8 -10
-5 -16 10 -147 -34 -239 -81 -154 -79 -323 -232 -382 -346 -11 -21 -24 -38
-30 -38 -6 0 -8 -4 -4 -9 3 -5 -1 -15 -8 -23 -7 -7 -14 -17 -15 -23 -6 -27
-14 -45 -22 -45 -5 0 -7 -6 -4 -14 3 -7 -2 -20 -10 -29 -8 -8 -12 -17 -9 -21
3 -3 1 -12 -5 -19 -7 -8 -9 -16 -7 -19 3 -3 1 -18 -6 -34 -6 -16 -14 -47 -17
-69 -9 -51 -9 -3067 -1 -3120 4 -22 12 -53 18 -68 6 -15 10 -31 10 -35 -1 -4
0 -10 1 -14 1 -5 3 -11 4 -15 2 -5 8 -21 15 -38 35 -79 56 -121 70 -137 8 -10
11 -18 7 -18 -4 0 -2 -6 3 -12 6 -7 39 -49 73 -93 78 -99 201 -198 318 -258
91 -47 223 -92 239 -82 5 3 11 -1 13 -7 4 -10 317 -14 1533 -16 l1528 -2 106
25 c134 32 278 102 388 189 84 67 190 185 218 244 9 17 21 32 27 32 6 0 9 3 5
6 -3 3 6 29 21 57 14 29 27 58 28 66 2 8 6 17 11 20 4 3 9 13 10 21 3 25 12
60 18 69 17 28 19 202 22 1596 4 1625 5 1591 -44 1719 -8 23 -15 49 -16 59 -1
9 -4 17 -7 17 -3 0 -14 18 -24 41 -26 58 -105 175 -160 236 -68 75 -193 166
-299 218 -92 44 -248 91 -266 80 -5 -3 -12 -1 -16 5 -7 12 -3009 13 -3040 1z"/>
</g>
</svg>
